<?xml version="1.0" encoding="UTF-8"?>
<svg width="166px" height="166px" viewBox="0 0 166 166" version="1.1" xmlns="http://www.w3.org/2000/svg" xmlns:xlink="http://www.w3.org/1999/xlink">
    <!-- Generator: Sketch 63.1 (92452) - https://sketch.com -->
    <title>dot square</title>
    <desc>Created with Sketch.</desc>
    <defs>
        <linearGradient x1="57.9114049%" y1="72.6652174%" x2="542.075881%" y2="1474.46087%" id="linearGradient-1">
            <stop stop-color="#2AFFD8" offset="0%"></stop>
            <stop stop-color="#1552FF" offset="100%"></stop>
        </linearGradient>
    </defs>
    <g id="Page-1" stroke="none" stroke-width="1" fill="none" fill-rule="evenodd">
        <g id="Plainthing-Website" transform="translate(-790.000000, -2823.000000)" fill="url(#linearGradient-1)" fill-rule="nonzero">
            <g id="We-Love" transform="translate(-371.000000, 1763.000000)">
                <g id="environment">
                    <g id="dot-square" transform="translate(1161.000000, 1060.000000)">
                        <g id="Group">
                            <ellipse id="Oval" cx="2.58817204" cy="2.9" rx="2.05268817" ry="2.3"></ellipse>
                            <ellipse id="Oval" cx="29.3623656" cy="2.9" rx="2.05268817" ry="2.3"></ellipse>
                            <ellipse id="Oval" cx="56.1365591" cy="2.9" rx="2.05268817" ry="2.3"></ellipse>
                            <ellipse id="Oval" cx="82.9107527" cy="2.9" rx="2.05268817" ry="2.3"></ellipse>
                            <ellipse id="Oval" cx="109.684946" cy="2.9" rx="2.05268817" ry="2.3"></ellipse>
                            <ellipse id="Oval" cx="136.45914" cy="2.9" rx="2.05268817" ry="2.3"></ellipse>
                            <ellipse id="Oval" cx="163.233333" cy="2.9" rx="2.05268817" ry="2.3"></ellipse>
                        </g>
                        <g id="Group" transform="translate(0.000000, 26.000000)">
                            <ellipse id="Oval" cx="2.58817204" cy="2.9" rx="2.05268817" ry="2.3"></ellipse>
                            <ellipse id="Oval" cx="29.3623656" cy="2.9" rx="2.05268817" ry="2.3"></ellipse>
                            <ellipse id="Oval" cx="56.1365591" cy="2.9" rx="2.05268817" ry="2.3"></ellipse>
                            <ellipse id="Oval" cx="82.9107527" cy="2.9" rx="2.05268817" ry="2.3"></ellipse>
                            <ellipse id="Oval" cx="109.684946" cy="2.9" rx="2.05268817" ry="2.3"></ellipse>
                            <ellipse id="Oval" cx="136.45914" cy="2.9" rx="2.05268817" ry="2.3"></ellipse>
                            <ellipse id="Oval" cx="163.233333" cy="2.9" rx="2.05268817" ry="2.3"></ellipse>
                        </g>
                        <g id="Group" transform="translate(0.000000, 53.000000)">
                            <ellipse id="Oval" cx="2.58817204" cy="2.9" rx="2.05268817" ry="2.3"></ellipse>
                            <ellipse id="Oval" cx="29.3623656" cy="2.9" rx="2.05268817" ry="2.3"></ellipse>
                            <ellipse id="Oval" cx="56.1365591" cy="2.9" rx="2.05268817" ry="2.3"></ellipse>
                            <ellipse id="Oval" cx="82.9107527" cy="2.9" rx="2.05268817" ry="2.3"></ellipse>
                            <ellipse id="Oval" cx="109.684946" cy="2.9" rx="2.05268817" ry="2.3"></ellipse>
                            <ellipse id="Oval" cx="136.45914" cy="2.9" rx="2.05268817" ry="2.3"></ellipse>
                            <ellipse id="Oval" cx="163.233333" cy="2.9" rx="2.05268817" ry="2.3"></ellipse>
                        </g>
                        <g id="Group" transform="translate(0.000000, 81.000000)">
                            <ellipse id="Oval" cx="2.58817204" cy="2.9" rx="2.05268817" ry="2.3"></ellipse>
                            <ellipse id="Oval" cx="29.3623656" cy="2.9" rx="2.05268817" ry="2.3"></ellipse>
                            <ellipse id="Oval" cx="56.1365591" cy="2.9" rx="2.05268817" ry="2.3"></ellipse>
                            <ellipse id="Oval" cx="82.9107527" cy="2.9" rx="2.05268817" ry="2.3"></ellipse>
                            <ellipse id="Oval" cx="109.684946" cy="2.9" rx="2.05268817" ry="2.3"></ellipse>
                            <ellipse id="Oval" cx="136.45914" cy="2.9" rx="2.05268817" ry="2.3"></ellipse>
                            <ellipse id="Oval" cx="163.233333" cy="2.9" rx="2.05268817" ry="2.3"></ellipse>
                        </g>
                        <g id="Group" transform="translate(0.000000, 107.000000)">
                            <ellipse id="Oval" cx="2.58817204" cy="2.9" rx="2.05268817" ry="2.3"></ellipse>
                            <ellipse id="Oval" cx="29.3623656" cy="2.9" rx="2.05268817" ry="2.3"></ellipse>
                            <ellipse id="Oval" cx="56.1365591" cy="2.9" rx="2.05268817" ry="2.3"></ellipse>
                            <ellipse id="Oval" cx="82.9107527" cy="2.9" rx="2.05268817" ry="2.3"></ellipse>
                            <ellipse id="Oval" cx="109.684946" cy="2.9" rx="2.05268817" ry="2.3"></ellipse>
                            <ellipse id="Oval" cx="136.45914" cy="2.9" rx="2.05268817" ry="2.3"></ellipse>
                            <ellipse id="Oval" cx="163.233333" cy="2.9" rx="2.05268817" ry="2.3"></ellipse>
                        </g>
                        <g id="Group" transform="translate(0.000000, 134.000000)">
                            <ellipse id="Oval" cx="2.58817204" cy="2.9" rx="2.05268817" ry="2.3"></ellipse>
                            <ellipse id="Oval" cx="29.3623656" cy="2.9" rx="2.05268817" ry="2.3"></ellipse>
                            <ellipse id="Oval" cx="56.1365591" cy="2.9" rx="2.05268817" ry="2.3"></ellipse>
                            <ellipse id="Oval" cx="82.9107527" cy="2.9" rx="2.05268817" ry="2.3"></ellipse>
                            <ellipse id="Oval" cx="109.684946" cy="2.9" rx="2.05268817" ry="2.3"></ellipse>
                            <ellipse id="Oval" cx="136.45914" cy="2.9" rx="2.05268817" ry="2.3"></ellipse>
                            <ellipse id="Oval" cx="163.233333" cy="2.9" rx="2.05268817" ry="2.3"></ellipse>
                        </g>
                        <g id="Group" transform="translate(0.000000, 160.000000)">
                            <ellipse id="Oval" cx="2.58817204" cy="2.9" rx="2.05268817" ry="2.3"></ellipse>
                            <ellipse id="Oval" cx="29.3623656" cy="2.9" rx="2.05268817" ry="2.3"></ellipse>
                            <ellipse id="Oval" cx="56.1365591" cy="2.9" rx="2.05268817" ry="2.3"></ellipse>
                            <ellipse id="Oval" cx="82.9107527" cy="2.9" rx="2.05268817" ry="2.3"></ellipse>
                            <ellipse id="Oval" cx="109.684946" cy="2.9" rx="2.05268817" ry="2.3"></ellipse>
                            <ellipse id="Oval" cx="136.45914" cy="2.9" rx="2.05268817" ry="2.3"></ellipse>
                            <ellipse id="Oval" cx="163.233333" cy="2.9" rx="2.05268817" ry="2.3"></ellipse>
                        </g>
                    </g>
                </g>
            </g>
        </g>
    </g>
</svg>