<?xml version="1.0" encoding="UTF-8"?>
<svg width="1121px" height="1709px" viewBox="0 0 1121 1709" version="1.1" xmlns="http://www.w3.org/2000/svg" xmlns:xlink="http://www.w3.org/1999/xlink">
    <!-- Generator: Sketch 63.1 (92452) - https://sketch.com -->
    <title>stars</title>
    <desc>Created with Sketch.</desc>
    <g id="Page-1" stroke="none" stroke-width="1" fill="none" fill-rule="evenodd" opacity="0.5">
        <g id="Plainthing-Website" transform="translate(-187.000000, -2013.000000)" fill="#FEFEFE" fill-rule="nonzero">
            <g id="We-Love" transform="translate(-371.000000, 1763.000000)">
                <g id="environment">
                    <g id="stars" transform="translate(1186.922368, 1061.603609) rotate(165.000000) translate(-1186.922368, -1061.603609) translate(417.922368, 168.603609)">
                        <g id="Group-20" transform="translate(0.125000, 0.500928)">
                            <path d="M775.875,1012.46511 C779.175,1012.46511 779.175,1007.34105 775.875,1007.34105 C772.575,1007.24058 772.575,1012.46511 775.875,1012.46511 L775.875,1012.46511 Z" id="Path"></path>
                            <path d="M241.997588,1452.78595 C245.297588,1452.78595 245.297588,1447.6619 241.997588,1447.6619 C238.697588,1447.56142 238.697588,1452.78595 241.997588,1452.78595 L241.997588,1452.78595 Z" id="Path"></path>
                            <path d="M305.757674,762.776784 C309.057674,762.776784 309.057674,757.652728 305.757674,757.652728 C302.457674,757.552256 302.457674,762.776784 305.757674,762.776784 L305.757674,762.776784 Z" id="Path"></path>
                            <path d="M769.418342,496.715166 C772.718342,496.715166 772.718342,491.591109 769.418342,491.591109 C766.118342,491.490638 766.118342,496.715166 769.418342,496.715166 L769.418342,496.715166 Z" id="Path"></path>
                            <path d="M504.83993,838.89679 C508.13993,838.89679 508.13993,833.772733 504.83993,833.772733 C501.53993,833.672262 501.53993,838.89679 504.83993,838.89679 L504.83993,838.89679 Z" id="Path"></path>
                            <path d="M369.723143,493.144778 C373.023143,493.144778 373.023143,488.020721 369.723143,488.020721 C366.423143,487.92025 366.423143,493.144778 369.723143,493.144778 L369.723143,493.144778 Z" id="Path"></path>
                            <path d="M1297.57937,159.93789 C1300.87937,159.93789 1300.87937,154.813834 1297.57937,154.813834 C1294.27937,154.713362 1294.27937,159.93789 1297.57937,159.93789 L1297.57937,159.93789 Z" id="Path"></path>
                            <path d="M1002.0827,393.413205 C1005.3827,393.413205 1005.3827,388.289148 1002.0827,388.289148 C998.782703,388.188676 998.782703,393.413205 1002.0827,393.413205 L1002.0827,393.413205 Z" id="Path"></path>
                            <path d="M1534.14193,459.367606 C1537.44193,459.367606 1537.44193,454.24355 1534.14193,454.24355 C1530.84193,454.143078 1530.84193,459.367606 1534.14193,459.367606 L1534.14193,459.367606 Z" id="Path"></path>
                            <path d="M903.089088,5.57655834 C906.389088,5.57655834 906.389088,0.452501736 903.089088,0.452501736 C899.789088,0.352030038 899.789088,5.57655834 903.089088,5.57655834 L903.089088,5.57655834 Z" id="Path"></path>
                            <path d="M662.740083,1416.44379 C666.040083,1416.44379 666.040083,1411.31974 662.740083,1411.31974 C659.440083,1411.21927 659.440083,1416.44379 662.740083,1416.44379 L662.740083,1416.44379 Z" id="Path"></path>
                            <path d="M1094.17347,1220.42789 C1097.47347,1220.42789 1097.47347,1215.30383 1094.17347,1215.30383 C1090.87347,1215.20336 1090.87347,1220.42789 1094.17347,1220.42789 L1094.17347,1220.42789 Z" id="Path"></path>
                            <path d="M943.09881,1506.05955 C946.39881,1506.05955 946.39881,1500.9355 943.09881,1500.9355 C939.79881,1500.83503 939.79881,1506.05955 943.09881,1506.05955 L943.09881,1506.05955 Z" id="Path"></path>
                            <path d="M967.75828,1784.94468 C971.05828,1784.94468 971.05828,1779.82062 967.75828,1779.82062 C964.45828,1779.72015 964.45828,1784.94468 967.75828,1784.94468 L967.75828,1784.94468 Z" id="Path"></path>
                            <path d="M787.875,823.578318 C791.175,823.578318 791.175,818.454261 787.875,818.454261 C784.575,818.353789 784.575,823.578318 787.875,823.578318 L787.875,823.578318 Z" id="Path"></path>
                            <path d="M525.875,1037.58303 C529.175,1037.58303 529.175,1032.45898 525.875,1032.45898 C522.575,1032.35851 522.575,1037.58303 525.875,1037.58303 L525.875,1037.58303 Z" id="Path"></path>
                            <path d="M311.875,1262.63964 C315.175,1262.63964 315.175,1257.51558 311.875,1257.51558 C308.575,1257.41511 308.575,1262.63964 311.875,1262.63964 L311.875,1262.63964 Z" id="Path"></path>
                            <path d="M1351.875,727.125487 C1355.175,727.125487 1355.175,722.001431 1351.875,722.001431 C1348.575,721.900959 1348.575,727.125487 1351.875,727.125487 L1351.875,727.125487 Z" id="Path"></path>
                            <path d="M1362.875,1002.41794 C1366.175,1002.41794 1366.175,997.293884 1362.875,997.293884 C1359.575,997.193412 1359.575,1002.41794 1362.875,1002.41794 L1362.875,1002.41794 Z" id="Path"></path>
                            <path d="M510.975,1105.90379 C514.275,1105.90379 514.275,1100.77973 510.975,1100.77973 C507.675,1100.77973 507.675,1105.90379 510.975,1105.90379 L510.975,1105.90379 Z" id="Path"></path>
                            <path d="M371.475,1149.60898 C374.775,1149.60898 374.775,1144.48492 371.475,1144.48492 C368.175,1144.48492 368.175,1149.60898 371.475,1149.60898 L371.475,1149.60898 Z" id="Path"></path>
                            <path d="M548.475,1169.20096 C551.775,1169.20096 551.775,1164.0769 548.475,1164.0769 C545.175,1164.0769 545.175,1169.20096 548.475,1169.20096 L548.475,1169.20096 Z" id="Path"></path>
                            <path d="M176.475,1265.65379 C179.775,1265.65379 179.775,1260.52973 176.475,1260.52973 C173.175,1260.52973 173.175,1265.65379 176.475,1265.65379 L176.475,1265.65379 Z" id="Path"></path>
                            <path d="M961.175,916.414167 C964.475,916.414167 964.475,911.29011 961.175,911.29011 C957.875,911.29011 957.875,916.414167 961.175,916.414167 L961.175,916.414167 Z" id="Path"></path>
                            <path d="M1033.275,986.744355 C1036.575,986.744355 1036.575,981.620299 1033.275,981.620299 C1029.975,981.620299 1029.975,986.744355 1033.275,986.744355 L1033.275,986.744355 Z" id="Path"></path>
                            <path d="M1111.175,797.958035 C1114.475,797.958035 1114.475,792.833978 1111.175,792.833978 C1107.875,792.833978 1107.875,797.958035 1111.175,797.958035 L1111.175,797.958035 Z" id="Path"></path>
                            <path d="M949.375,792.130676 C952.675,792.130676 952.675,787.006619 949.375,787.006619 C946.075,787.006619 946.075,792.130676 949.375,792.130676 L949.375,792.130676 Z" id="Path"></path>
                            <path d="M997.312192,662.810078 C994.012192,662.810078 994.012192,667.934135 997.312192,667.934135 C1000.61219,667.934135 1000.61219,662.810078 997.312192,662.810078 Z" id="Path"></path>
                            <path d="M1218.975,818.554733 C1222.275,818.554733 1222.275,813.430676 1218.975,813.430676 C1215.675,813.430676 1215.675,818.554733 1218.975,818.554733 L1218.975,818.554733 Z" id="Path"></path>
                            <path d="M1221.875,915.811336 C1225.175,915.811336 1225.175,910.68728 1221.875,910.68728 C1218.675,910.68728 1218.675,915.811336 1221.875,915.811336 L1221.875,915.811336 Z" id="Path"></path>
                            <path d="M909.575,989.658035 C912.875,989.658035 912.875,984.533978 909.575,984.533978 C906.275,984.533978 906.275,989.658035 909.575,989.658035 L909.575,989.658035 Z" id="Path"></path>
                            <path d="M867.675,868.388695 C870.975,868.388695 870.975,863.264638 867.675,863.264638 C864.375,863.264638 864.375,868.388695 867.675,868.388695 L867.675,868.388695 Z" id="Path"></path>
                            <ellipse id="XMLID_41_" opacity="0.5" cx="1164.175" cy="889.38728" rx="3.5" ry="3.51650943"></ellipse>
                        </g>
                    </g>
                </g>
            </g>
        </g>
    </g>
</svg>